<?xml version="1.0" encoding="UTF-8" standalone="no"?>
<!-- Created with Inkscape (http://www.inkscape.org/) -->
<svg
   xmlns:dc="http://purl.org/dc/elements/1.1/"
   xmlns:cc="http://web.resource.org/cc/"
   xmlns:rdf="http://www.w3.org/1999/02/22-rdf-syntax-ns#"
   xmlns:svg="http://www.w3.org/2000/svg"
   xmlns="http://www.w3.org/2000/svg"
   xmlns:sodipodi="http://sodipodi.sourceforge.net/DTD/sodipodi-0.dtd"
   xmlns:inkscape="http://www.inkscape.org/namespaces/inkscape"
   height="434"
   width="358"
   id="svg2"
   sodipodi:version="0.32"
   inkscape:version="0.45.1"
   version="1.0"
   sodipodi:docbase="C:\Users\Paweł\Desktop\ruda"
   sodipodi:docname="ruda.svg"
   inkscape:output_extension="org.inkscape.output.svg.inkscape">
  <defs
     id="defs4" />
  <sodipodi:namedview
     id="base"
     pagecolor="#ffffff"
     bordercolor="#666666"
     borderopacity="1.0"
     inkscape:pageopacity="0.0"
     inkscape:pageshadow="2"
     inkscape:cx="288.76934"
     inkscape:cy="295.51905"
     inkscape:zoom="1"
     inkscape:document-units="px"
     inkscape:current-layer="layer1"
     width="358px"
     height="434px"
     inkscape:window-width="1440"
     inkscape:window-height="850"
     inkscape:window-x="-8"
     inkscape:window-y="-8" />
  <metadata
     id="metadata7">
    <rdf:RDF>
      <cc:Work
         rdf:about="">
        <dc:format>image/svg+xml</dc:format>
        <dc:type
           rdf:resource="http://purl.org/dc/dcmitype/StillImage" />
      </cc:Work>
    </rdf:RDF>
  </metadata>
  <g
     inkscape:groupmode="layer"
     inkscape:label="Warstwa 1"
     id="layer1">
    <path
       
       d="M 133.08944,13.695218 C 132.32511,13.726588 131.45783,13.835538 130.43319,13.976468 C 123.79336,14.889668 122.81945,17.047158 124.46444,27.163968 C 126.26,38.206698 124.84278,39.803248 112.24569,40.976468 C 107.97525,41.374198 104.23206,42.086658 103.93319,42.570218 C 103.20843,43.742908 93.180775,48.472488 91.401945,48.476468 C 89.185215,48.481408 89.412455,71.549698 91.651945,74.101468 C 95.408325,78.381628 95.107865,85.824738 90.933195,91.976468 C 89.605295,93.933218 88.495695,96.162288 88.495695,96.913968 C 88.495685,98.886038 94.284305,103.44522 96.776945,103.44522 C 97.942145,103.44521 100.10279,104.61336 101.55819,106.00772 C 103.30169,107.67809 105.99357,108.8028 109.46444,109.35147 C 112.36179,109.80947 115.10801,110.81009 115.58944,111.57022 C 116.07086,112.33036 116.48727,116.64873 116.49569,121.16397 C 116.51001,128.84052 116.31716,129.54591 113.74569,131.94522 C 112.23318,133.35645 109.19569,134.98045 106.99569,135.57022 C 104.79568,136.15999 100.85819,137.5862 98.245695,138.72647 C 94.303405,140.44714 93.495695,141.25585 93.495695,143.44522 C 93.495685,147.02271 91.710795,148.99956 87.245695,150.41397 C 85.183185,151.06732 83.495695,152.0218 83.495695,152.50772 C 83.495685,153.9606 79.395605,157.33674 73.776945,160.50772 C 70.872055,162.14712 68.495695,164.0989 68.495695,164.85147 C 68.495685,167.16391 77.758265,170.44522 84.245695,170.44522 C 89.709515,170.44521 90.366655,170.69329 93.245695,173.94522 C 94.949955,175.87021 97.229575,177.44522 98.339445,177.44522 C 99.479135,177.44521 100.63718,178.31567 100.99569,179.44522 C 101.5525,181.19958 102.50769,181.46939 108.80819,181.47647 C 115.95097,181.48449 138.45185,184.05762 139.37069,184.97647 C 140.63809,186.24386 146.62084,185.33587 147.21444,183.78897 C 147.64304,182.67206 146.89688,181.38445 144.93319,179.82022 L 141.99569,177.47647 L 141.68319,164.03897 C 141.33909,149.85621 142.08617,146.44522 145.49569,146.44522 C 148.09191,146.44521 148.90959,144.8008 148.96444,139.47647 C 149.00229,135.80152 149.41677,134.76542 151.21444,133.97647 C 152.42951,133.4432 153.55451,132.09321 153.71444,130.97647 C 153.87437,129.85972 155.00819,128.51939 156.24569,127.97647 C 157.4832,127.43356 158.49569,126.27023 158.49569,125.38272 C 158.4957,124.49522 158.97787,122.39116 159.55819,120.72647 C 160.60045,117.73668 160.72606,117.69177 168.99569,117.25772 C 173.78577,117.00631 178.03312,116.25471 178.93319,115.50772 C 181.2028,113.62413 180.96021,105.32745 178.49569,100.22647 C 177.00576,97.142648 176.49569,94.048308 176.49569,88.070218 C 176.4957,80.656778 176.30042,79.864038 173.93319,77.976468 C 170.96085,75.606398 171.3764,73.279008 175.05819,71.601468 C 177.93878,70.288968 178.32212,67.445218 175.62069,67.445218 C 173.19844,67.445208 171.91826,65.783728 170.99569,61.476468 C 170.58718,59.569248 168.89722,56.769228 167.24569,55.226468 C 164.32302,52.496318 164.25111,52.227278 164.71444,45.007718 C 165.23622,36.877248 164.95872,35.884258 161.99569,35.288968 C 160.22806,34.933848 160.0342,34.213088 160.27694,29.007718 C 160.57335,22.651608 159.83513,21.502948 155.46444,21.476468 C 154.0743,21.468048 152.04931,20.856198 150.96444,20.101468 C 149.87955,19.346748 147.42069,18.381078 145.49569,17.976468 C 143.5707,17.571848 140.54213,16.348768 138.74569,15.257718 C 136.75654,14.049638 135.38244,13.601098 133.08944,13.695218 z "
       id="path7249" />
    <path
       style="fill:#e3dbdb;fill-opacity:1;stroke:#000000;stroke-width:0.69999999;stroke-miterlimit:4;stroke-dasharray:none;stroke-opacity:1"
       d="M 214.87069,17.070218 C 213.50911,17.052758 211.88238,17.081898 209.90194,17.132718 C 204.46047,17.272358 197.97069,17.659528 195.49569,18.007718 C 193.0207,18.355918 186.0727,18.813768 180.02694,19.038968 C 173.98117,19.264178 167.58577,19.931378 165.83944,20.507718 C 162.77273,21.519828 162.66649,21.734168 162.71444,27.070218 C 162.75818,31.938348 163.06555,32.714478 165.15194,33.507718 C 167.39907,34.362088 167.49569,34.851198 167.49569,43.351468 C 167.4957,52.161248 167.54592,52.344798 170.49569,54.445218 C 172.63944,55.971698 173.67116,57.727788 174.12069,60.538968 C 174.58499,63.442548 175.24759,64.445218 176.58944,64.445218 C 178.04812,64.445208 178.46981,63.507668 178.71444,59.695218 C 179.04473,54.547728 178.41676,54.880888 185.99569,55.726468 C 187.62443,55.908178 188.0607,55.285738 188.30819,52.320218 C 188.60986,48.705288 188.65283,48.659628 194.12069,47.976468 C 197.35681,47.572138 199.84031,46.726058 200.15194,45.913968 C 200.93597,43.870818 204.37956,43.099278 206.15194,44.570218 C 207.44235,45.641178 207.95775,45.505348 209.33944,43.757718 C 210.25009,42.605908 212.00819,41.378358 213.24569,41.007718 C 215.21545,40.417778 215.49569,39.669878 215.49569,34.976468 C 215.4957,31.544308 216.03541,29.061748 216.99569,28.101468 C 217.8207,27.276468 218.51852,26.015748 218.52694,25.288968 C 218.53873,24.271558 218.70679,24.248498 219.30819,25.195218 C 219.84944,26.047258 220.677,25.437188 221.96444,23.257718 C 223.78916,20.168738 223.78302,20.106838 221.80819,18.507718 C 220.60061,17.529888 218.95544,17.122608 214.87069,17.070218 z "
       id="path7247" />
    <path
       style="fill:#e3dbdb;fill-opacity:1;stroke:#000000;stroke-width:0.69999999;stroke-miterlimit:4;stroke-dasharray:none;stroke-opacity:1"
       d="M 224.21444,24.570218 L 221.37069,28.757718 C 219.42359,31.629918 218.53942,34.230378 218.52694,37.007718 C 218.50719,41.399878 217.15097,43.445218 214.27694,43.445218 C 213.26968,43.445208 212.16331,44.232718 211.80819,45.195218 C 211.45307,46.157708 210.67956,47.291138 210.08944,47.695218 C 208.37273,48.870728 204.72455,48.557798 204.15194,47.195218 C 203.77576,46.300058 203.32021,46.442008 202.52694,47.695218 C 201.91769,48.657708 200.53711,49.445218 199.46444,49.445218 C 198.39177,49.445208 197.49569,49.895218 197.49569,50.445218 C 197.4957,50.995208 195.92069,51.445218 193.99569,51.445218 C 190.95648,51.445208 190.49569,51.773878 190.49569,53.882718 C 190.4957,55.218438 189.79748,57.018438 188.93319,57.882718 C 187.07678,59.739118 187.29784,59.708178 184.05819,58.476468 C 181.69496,57.577968 181.50827,57.715698 181.49569,60.226468 C 181.48818,61.725348 181.20446,63.980798 180.87069,65.226468 C 180.38698,67.031698 180.60413,67.349488 181.90194,66.851468 C 182.79747,66.507808 184.61303,66.965988 185.96444,67.851468 C 187.31583,68.736938 188.94658,69.445218 189.58944,69.445218 C 190.2323,69.445208 191.85112,70.682718 193.15194,72.195218 C 194.90125,74.229188 195.49479,76.178778 195.49569,79.601468 C 195.49646,82.493628 196.05821,84.667178 196.99569,85.445218 C 197.8207,86.129898 198.49569,88.212568 198.49569,90.070218 L 198.49569,93.445218 L 204.55819,93.445218 C 210.15373,93.445208 210.60754,93.305788 210.02694,91.476468 C 209.68069,90.385508 209.70631,86.302138 210.08944,82.413968 C 210.66577,76.565078 211.4397,74.321428 214.65194,69.351468 C 217.15696,65.475718 219.15878,63.394718 220.27694,63.507718 C 226.69855,64.156688 226.8175,64.031418 226.27694,56.476468 C 225.92302,51.530018 226.17691,48.969958 227.12069,47.726468 C 227.96047,46.619998 228.44442,43.067918 228.46444,38.163968 C 228.49068,31.737398 228.13806,29.866978 226.37069,27.476468 L 224.21444,24.570218 z "
       id="path7245" />
    <path
       style="fill:#e3dbdb;fill-opacity:1;stroke:#000000;stroke-width:0.69999999;stroke-miterlimit:4;stroke-dasharray:none;stroke-opacity:1"
       d="M 183.90194,70.070218 C 182.91776,70.048868 181.87656,70.636458 179.90194,71.976468 C 177.88391,73.345958 175.76015,74.445218 175.18319,74.445218 C 174.60622,74.445208 175.03137,75.307498 176.15194,76.351468 C 177.79059,77.878108 178.34313,80.042838 178.90194,87.445218 C 179.28406,92.507208 180.2256,97.638678 180.99569,98.820218 C 181.76577,100.00178 182.50039,103.75102 182.62069,107.16397 C 182.76496,111.25674 183.30103,113.5442 184.18319,113.88272 C 185.0463,114.21392 185.49569,116.11754 185.49569,119.25772 C 185.4957,123.40381 185.05181,124.51146 182.49569,126.78897 C 179.5753,129.39105 177.95687,134.9991 180.80819,132.63272 C 181.51822,132.04342 185.90573,131.42216 190.55819,131.25772 C 195.21063,131.09329 200.15841,131.31501 201.55819,131.75772 C 203.80093,132.46705 204.27607,132.17188 205.55819,129.25772 C 206.44817,127.23486 208.4891,125.16862 210.83944,123.94522 C 213.22186,122.70511 215.21529,120.71038 216.05819,118.69522 C 216.80587,116.90771 217.82725,115.44522 218.33944,115.44522 C 219.41754,115.44521 219.34023,109.94601 218.24569,108.85147 C 217.84114,108.44691 217.49569,107.34648 217.49569,106.38272 C 217.4957,104.64946 214.90697,99.155898 213.02694,96.913968 C 212.38245,96.145398 209.71787,95.928788 205.12069,96.257718 C 197.45625,96.806098 195.52833,95.648718 195.46444,90.507718 C 195.44695,89.100328 194.77194,87.075338 193.96444,86.007718 C 193.15694,84.940088 192.49569,82.219228 192.49569,79.945218 C 192.4957,75.713258 190.97612,73.629958 185.77694,70.726468 C 185.05999,70.326088 184.49245,70.083028 183.90194,70.070218 z "
       id="path7243" />
    <path
       style="fill:#e3dbdb;fill-opacity:1;stroke:#000000;stroke-width:0.69999999;stroke-miterlimit:4;stroke-dasharray:none;stroke-opacity:1"
       d="M 181.83944,116.88272 C 181.6779,116.88634 181.48225,117.01216 181.24569,117.19522 C 178.79428,119.09217 170.58352,120.69839 166.90194,120.00772 C 162.67242,119.21427 161.55079,120.25715 161.52694,125.00772 C 161.50962,128.45771 159.95927,130.44522 157.30819,130.44522 C 156.03752,130.44521 155.49569,131.20808 155.49569,133.03897 C 155.4957,134.83144 154.85092,135.8163 153.40194,136.19522 C 151.68541,136.64411 151.42238,137.26613 151.90194,139.66397 C 152.66391,143.47379 150.22284,148.2145 147.27694,148.63272 C 145.07669,148.94509 144.98507,149.30495 144.71444,162.07022 C 144.4415,174.94537 144.50009,175.2323 146.96444,177.57022 C 148.3454,178.88033 149.48619,181.04317 149.49569,182.38272 C 149.5052,183.72226 150.48732,185.85977 151.68319,187.13272 C 153.66883,189.24632 154.71101,189.44522 163.65194,189.44522 C 172.11943,189.44521 173.55404,189.70466 174.40194,191.28897 C 175.18959,192.76072 176.45241,193.0914 180.71444,192.91397 C 183.6321,192.79252 187.34569,192.15922 188.99569,191.50772 C 190.93357,190.74254 194.36577,190.54787 198.65194,190.97647 C 203.04321,191.41557 205.51862,191.26032 205.96444,190.53897 C 206.81092,189.16933 219.15568,189.1173 219.99569,190.47647 C 220.40994,191.14675 221.24327,191.14675 222.49569,190.47647 C 225.23128,189.01243 229.06588,189.22241 230.49569,190.94522 C 231.18039,191.77021 232.39747,192.44522 233.18319,192.44522 C 235.02489,192.44521 237.49569,186.51333 237.49569,182.10147 C 237.4957,179.44077 238.27145,177.99719 240.96444,175.63272 C 244.31085,172.69454 244.40747,172.4644 242.99569,169.75772 C 242.19049,168.21399 241.50594,165.82022 241.49569,164.44522 C 241.4735,161.46718 234.4467,153.46084 231.80819,153.41397 C 230.82363,153.39646 229.13784,152.73867 228.08944,151.94522 C 227.04103,151.15177 223.7254,149.78928 220.71444,148.91397 C 215.4581,147.38591 213.23682,145.82982 205.96444,138.69522 C 204.14242,136.90771 201.95016,135.44522 201.12069,135.44522 C 200.2912,135.44521 199.35794,135.01203 199.02694,134.47647 C 198.69594,133.94091 195.4034,133.58205 191.71444,133.66397 C 185.88841,133.79336 184.71745,134.12336 182.90194,136.28897 C 179.55378,140.28278 177.49569,138.65604 177.49569,132.00772 C 177.4957,127.23564 177.82985,126.27059 179.99569,124.85147 C 181.87583,123.61957 182.49569,122.36425 182.49569,119.72647 C 182.4957,117.7351 182.32407,116.87187 181.83944,116.88272 z "
       id="path7241" />
    <path
       style="fill:#e3dbdb;fill-opacity:1;stroke:#000000;stroke-width:0.69999999;stroke-miterlimit:4;stroke-dasharray:none;stroke-opacity:1"
       d="M 85.276945,173.16397 C 84.719615,173.17876 84.128855,173.22859 83.495695,173.28897 L 79.495695,173.66397 L 79.683195,178.19522 C 79.881955,183.44999 78.464685,184.95218 72.401945,185.97647 L 68.495695,186.63272 L 68.495695,193.97647 C 68.495685,200.18578 68.144865,201.73813 66.245695,203.88272 C 64.166015,206.23112 63.039725,206.50705 51.120695,207.44522 C 44.028315,208.00347 34.803325,208.46896 30.620695,208.47647 C 18.643115,208.49798 18.562555,208.5259 18.620695,216.10147 C 18.650455,219.97646 18.152395,223.15959 17.370695,224.10147 C 16.656665,224.96184 15.629675,226.60161 15.058195,227.72647 C 14.486725,228.85133 13.095695,230.24749 11.995695,230.85147 C 10.895684,231.45547 9.8365643,232.07102 9.6206943,232.19522 C 9.4048143,232.31942 9.8154143,233.14398 10.558194,234.03897 C 11.474285,235.14279 12.059675,239.63541 12.339445,248.03897 C 12.679905,258.26555 12.458345,260.87247 11.120694,262.91397 C 10.229454,264.27418 9.4956943,267.1714 9.4956943,269.35147 C 9.4956843,271.64862 8.8275443,273.98838 7.9019443,274.91397 C 5.8329543,276.98297 6.8678143,279.95319 9.2769443,278.88272 C 12.899795,277.27294 19.511575,277.22274 21.901945,278.78897 C 23.612965,279.91007 27.928965,280.48482 37.620695,280.85147 C 56.917545,281.58149 64.239835,282.41278 65.589445,284.03897 C 66.455285,285.08223 69.278625,285.44522 76.370695,285.44522 L 86.026945,285.44522 L 90.276945,281.44522 C 92.611445,279.24628 94.495695,276.99363 94.495695,276.41397 C 94.495685,275.8343 95.845695,274.89541 97.495695,274.32022 C 99.145685,273.74501 100.49569,272.85945 100.49569,272.35147 C 100.49568,271.84347 101.61782,270.90253 102.96444,270.28897 C 104.31106,269.6754 105.54856,268.26995 105.71444,267.16397 C 106.0115,265.18336 107.30186,264.13439 110.74569,263.07022 C 111.96286,262.69411 112.49569,261.49587 112.49569,259.13272 C 112.49568,256.27426 113.25922,255.15861 117.18319,252.10147 C 119.74845,250.1029 122.44845,248.44522 123.18319,248.44522 C 124.12549,248.44521 124.49569,246.93664 124.49569,243.28897 C 124.4957,238.21588 126.33357,234.51325 128.90194,234.41397 C 129.50419,234.39068 131.02119,232.80299 132.24569,230.88272 L 134.46444,227.38272 L 132.18319,226.53897 C 127.42727,224.73077 127.01893,223.10186 127.74569,209.94522 L 127.99569,204.94522 L 134.74569,205.28897 L 141.49569,205.63272 L 141.49569,200.28897 C 141.48963,197.35257 141.20298,193.32959 140.87069,191.32022 C 140.35752,188.21704 139.81465,187.55171 137.15194,187.00772 C 131.71266,185.89649 110.22144,183.60914 104.65194,183.53897 C 100.28308,183.48392 99.244115,183.11768 98.839445,181.57022 C 98.555405,180.48405 97.120315,179.42639 95.495695,179.10147 C 93.807195,178.76378 92.394325,177.70121 91.995695,176.44522 C 91.254135,174.10874 89.178225,173.06047 85.276945,173.16397 z "
       id="path7239" />
    <path
       style="fill:#e3dbdb;fill-opacity:1;stroke:#000000;stroke-width:0.69999999;stroke-miterlimit:4;stroke-dasharray:none;stroke-opacity:1"
       d="M 146.62069,188.53897 C 144.36853,188.45917 143.87134,191.39663 143.93319,198.72647 L 143.99569,207.94522 L 137.37069,207.94522 L 130.74569,207.94522 L 130.08944,214.32022 C 129.3572,221.47063 130.03694,222.91597 134.55819,223.82022 C 137.24779,224.35813 137.4919,224.71308 136.90194,227.19522 C 136.53979,228.71883 135.62182,230.67066 134.87069,231.53897 C 134.11957,232.40727 133.49569,233.62765 133.49569,234.25772 C 133.4957,234.8878 132.14569,236.09197 130.49569,236.94522 C 127.78254,238.34824 127.49569,238.98924 127.49569,243.41397 C 127.4957,249.82916 126.79158,251.44522 123.96444,251.44522 C 122.67946,251.44521 121.02688,252.27589 120.30819,253.28897 C 119.5895,254.30206 118.36066,255.34914 117.58944,255.60147 C 115.83795,256.17451 113.30856,265.59582 114.55819,266.88272 C 115.10556,267.44642 116.27185,267.07809 117.55819,265.91397 C 119.64045,264.02955 119.70089,264.01502 121.08944,265.91397 C 121.86476,266.9743 122.49569,268.82794 122.49569,270.03897 C 122.4957,271.25 123.17069,272.50363 123.99569,272.82022 C 124.8207,273.13679 125.49569,274.04912 125.49569,274.85147 C 125.4957,275.65381 126.70277,277.2428 128.15194,278.38272 C 131.36674,280.91149 138.97729,281.27339 139.87069,278.94522 C 140.23331,278.00026 141.75127,277.44522 143.99569,277.44522 C 146.06142,277.44521 147.78955,276.88299 148.08944,276.10147 C 148.37391,275.36014 149.98138,273.74282 151.65194,272.50772 L 154.68319,270.25772 L 156.90194,272.35147 C 158.1276,273.50292 160.12012,274.44522 161.33944,274.44522 C 162.55874,274.44521 163.83536,275.12022 164.15194,275.94522 C 164.46854,276.77021 165.54949,277.44522 166.55819,277.44522 C 167.5669,277.44521 168.68148,277.9175 169.02694,278.47647 C 170.02088,280.08471 171.49569,278.55795 171.49569,275.94522 C 171.4957,273.16604 172.67287,272.27258 177.30819,271.50772 C 180.16376,271.03652 180.91414,270.32618 182.08944,266.94522 C 183.82175,261.96189 183.90147,257.04649 182.27694,254.44522 C 180.73798,251.98092 182.21358,249.12162 185.27694,248.66397 C 186.41834,248.49344 187.90091,247.70595 188.55819,246.91397 C 190.14475,245.00226 193.97688,245.08266 195.96444,247.07022 C 198.28185,249.38764 200.95038,248.13207 199.49569,245.41397 C 198.88654,244.27579 198.51696,242.30747 198.68319,241.03897 C 198.84942,239.77047 198.31374,237.93092 197.49569,236.94522 C 195.5258,234.57167 194.86192,220.46492 196.52694,216.44522 C 197.20073,214.81855 199.2604,212.53245 201.12069,211.38272 C 203.48946,209.91872 204.49569,208.55333 204.49569,206.82022 C 204.4957,204.84883 205.41089,203.93719 208.99569,202.35147 C 213.08727,200.54157 213.49569,200.05104 213.49569,196.88272 C 213.4957,192.90444 211.5656,191.59864 208.18319,193.28897 C 206.97687,193.89181 201.92478,194.27884 196.87069,194.16397 C 189.36438,193.99337 187.36692,194.28814 185.77694,195.72647 C 184.71164,196.69017 183.54331,197.18034 183.18319,196.82022 C 181.94994,195.58699 176.30787,196.33647 174.49569,197.97647 C 171.86616,200.35616 167.09108,199.56784 166.68319,196.69522 C 166.45622,195.09685 167.03937,194.16686 168.68319,193.50772 C 170.40343,192.81792 168.83486,192.55471 162.62069,192.50772 C 155.96241,192.45736 153.56533,192.02879 150.90194,190.38272 C 149.04813,189.237 147.6444,188.57524 146.62069,188.53897 z "
       id="path7237" />
    <path
       style="fill:#e3dbdb;fill-opacity:1;stroke:#000000;stroke-width:0.69999999;stroke-miterlimit:4;stroke-dasharray:none;stroke-opacity:1"
       d="M 216.93319,192.28897 C 215.97844,192.42712 215.60898,193.97058 216.02694,196.75772 C 216.74525,201.54774 215.71419,203.04966 210.80819,204.35147 C 208.68819,204.91401 207.93268,205.77695 207.68319,207.91397 C 207.26367,211.50762 205.33072,213.44522 202.18319,213.44522 C 198.95398,213.44521 198.49569,214.91515 198.49569,225.41397 C 198.4957,232.01249 198.8704,234.51131 199.99569,235.44522 C 200.83298,236.14009 201.49569,238.32357 201.49569,240.38272 C 201.4957,244.1964 204.37225,248.44522 206.93319,248.44522 C 207.66941,248.44521 208.811,249.12022 209.49569,249.94522 C 211.17005,251.96268 213.32046,251.83375 217.77694,249.44522 C 219.8293,248.34521 223.03865,247.44522 224.93319,247.44522 C 226.82771,247.44521 228.65577,246.99522 228.99569,246.44522 C 229.33562,245.89521 231.39065,245.44522 233.55819,245.44522 C 238.17816,245.44521 241.49569,242.75578 241.49569,238.97647 C 241.4957,237.60366 242.3785,233.89116 243.43319,230.72647 C 244.4879,227.56178 245.65611,220.71338 246.02694,215.50772 C 246.59894,207.47826 247.06123,205.58614 249.15194,203.10147 C 252.19973,199.47938 251.40624,198.57499 244.43319,197.78897 C 241.45031,197.45272 238.09569,196.69088 236.99569,196.10147 C 235.8957,195.51208 233.64497,194.86989 231.99569,194.66397 C 230.34643,194.45806 228.43341,193.82848 227.74569,193.25772 C 226.87356,192.53392 225.5963,192.59342 223.46444,193.47647 C 221.16969,194.42698 220.10484,194.46062 219.24569,193.60147 C 218.27769,192.63348 217.50604,192.20608 216.93319,192.28897 z "
       id="path7235" />
    <path
       style="fill:#e3dbdb;fill-opacity:1;stroke:#000000;stroke-width:0.69999999;stroke-miterlimit:4;stroke-dasharray:none;stroke-opacity:1"
       d="M 252.77694,204.03897 C 250.43952,204.28128 249.18426,208.54127 248.46444,218.16397 C 247.9848,224.57589 247.02473,230.16393 246.08944,231.94522 C 245.22308,233.59521 244.53033,236.73178 244.52694,238.88272 C 244.51908,243.87958 239.87952,248.44522 234.87069,248.44522 C 233.07722,248.44521 231.33561,248.89522 230.99569,249.44522 C 230.65578,249.99521 228.31368,250.44522 225.77694,250.44522 C 223.2402,250.44521 220.45775,251.06836 219.58944,251.82022 C 218.72114,252.57208 216.13747,253.47189 213.83944,253.82022 C 210.60205,254.31094 209.25435,254.07887 207.90194,252.72647 C 206.77392,251.59842 204.38572,250.90584 201.15194,250.78897 C 198.39991,250.68951 195.11155,250.06353 193.83944,249.38272 C 191.90807,248.34907 191.21837,248.39966 189.68319,249.78897 C 188.67205,250.70405 187.03623,251.44522 186.05819,251.44522 C 184.73841,251.44521 184.48758,251.8964 185.05819,253.19522 C 187.4558,258.65265 185.51753,271.27858 181.87069,273.94522 C 179.41528,275.74064 180.79181,279.69097 184.43319,281.28897 C 187.89758,282.80929 189.49569,282.19127 189.49569,279.35147 C 189.4957,277.53624 190.07823,277.3938 196.24569,277.66397 L 202.99569,277.94522 L 203.30819,282.60147 C 203.58268,286.84105 203.85995,287.28057 206.55819,287.82022 C 208.27723,288.16402 209.49569,289.05653 209.49569,289.94522 C 209.4957,290.78398 210.13939,291.44522 210.90194,291.44522 C 211.7785,291.44521 212.5378,293.10016 212.96444,295.94522 C 213.48561,299.42071 214.06151,300.44522 215.49569,300.44522 C 218.09644,300.44521 220.49569,301.48433 220.49569,302.60147 C 220.4957,303.11988 222.07069,305.18186 223.99569,307.16397 C 227.43932,310.70977 228.30658,312.84817 226.68319,313.85147 C 226.23008,314.13153 226.11133,316.29905 226.43319,318.66397 C 226.75507,321.0289 226.66291,325.42022 226.21444,328.44522 C 225.76596,331.47021 225.32221,335.52022 225.21444,337.44522 C 225.02768,340.78127 225.15442,340.95375 228.05819,340.66397 C 229.90284,340.47988 232.07256,341.08581 233.55819,342.22647 C 234.90763,343.26256 236.77915,344.38555 237.71444,344.72647 C 238.64975,345.06737 240.38033,347.61347 241.55819,350.35147 C 243.91495,355.8299 249.43077,360.44522 253.58944,360.44522 C 254.95001,360.44521 256.97919,361.10508 258.08944,361.88272 C 259.19968,362.66038 261.43355,363.46544 263.05819,363.69522 C 268.01965,364.3969 297.95144,363.25044 298.96444,362.32022 C 299.48694,361.8404 301.73694,361.43811 303.96444,361.41397 C 306.19194,361.38981 309.79569,360.7378 311.99569,359.94522 C 314.1957,359.15267 317.72378,358.48475 319.80819,358.47647 C 321.89259,358.46816 325.39165,357.53519 327.58944,356.41397 C 330.45389,354.95261 332.54628,354.54821 334.99569,355.00772 C 337.85162,355.54349 338.79235,355.24535 340.80819,353.07022 C 342.1347,351.63889 343.72305,350.44522 344.30819,350.44522 C 346.1727,350.44521 348.49569,347.38239 348.49569,344.94522 C 348.4957,343.57997 349.62744,341.70022 351.18319,340.47647 C 352.65981,339.31495 354.70907,337.03591 355.71444,335.38272 C 357.46341,332.50673 357.4635,332.26439 355.77694,329.94522 C 354.72356,328.4967 352.58729,327.28525 350.49569,326.94522 C 346.0063,326.21537 344.03494,325.0509 336.74569,318.94522 C 330.29081,313.53843 327.89145,310.352 327.12069,306.10147 C 326.84938,304.60532 325.46619,302.02478 324.05819,300.35147 C 322.6502,298.67816 321.49569,296.31797 321.49569,295.10147 C 321.4957,293.88497 320.59569,291.10281 319.49569,288.94522 C 318.3957,286.78762 317.49569,284.31893 317.49569,283.44522 C 317.4957,282.5715 317.01657,281.3411 316.40194,280.72647 C 315.30604,279.63059 315.63748,270.7137 317.08944,262.25772 C 317.53484,259.66386 317.24809,257.89856 316.12069,256.28897 C 315.23964,255.03112 314.49569,252.38647 314.49569,250.41397 C 314.4957,248.44148 313.83445,245.98159 313.02694,244.91397 C 312.21945,243.84634 311.54444,241.53643 311.52694,239.78897 C 311.50282,237.37837 310.63272,235.88366 307.90194,233.63272 C 304.29479,230.65938 303.55637,228.16634 304.96444,223.91397 C 305.57209,222.07885 305.1524,221.88429 300.80819,221.69522 C 298.16519,221.58019 295.86608,221.02512 295.68319,220.47647 C 294.56861,217.13272 291.68982,215.59495 285.49569,215.00772 C 281.42441,214.62174 278.0053,213.64651 276.30819,212.41397 C 274.81796,211.33167 272.31111,210.44522 270.74569,210.44522 C 269.18029,210.44521 266.3594,209.32022 264.49569,207.94522 C 262.63199,206.57021 260.04999,205.44522 258.74569,205.44522 C 257.44138,205.44521 255.5528,205.00877 254.55819,204.47647 C 253.89348,204.12073 253.31635,203.98305 252.77694,204.03897 z "
       id="path7233" />
    <path
       style="fill:#e3dbdb;fill-opacity:1;stroke:#000000;stroke-width:0.69999999;stroke-miterlimit:4;stroke-dasharray:none;stroke-opacity:1"
       d="M 109.35562,266.47147 C 108.60466,266.4372 107.91812,266.86786 107.91812,267.78397 C 107.91811,269.55661 101.21049,276.40897 99.48062,276.40897 C 98.26877,276.40896 92.70609,281.95055 91.79312,284.06522 C 91.59202,284.53102 89.99673,285.69647 88.26187,286.65897 C 84.12162,288.95597 65.84949,289.21692 64.01187,287.00272 C 62.61638,285.32126 55.33847,284.48743 36.51187,283.81522 C 24.7216,283.39426 22.23285,283.02642 20.13687,281.37772 C 17.48614,279.29267 13.42904,278.77326 12.41812,280.40897 C 12.07819,280.95896 10.57282,281.40897 9.0431196,281.40897 C 6.5037396,281.40896 6.1355296,281.90202 4.9493696,286.84647 C 4.2348396,289.82497 3.9419196,292.99376 4.2931196,293.90897 C 5.2973396,296.52595 3.9823596,300.09642 1.6056196,301.19022 C -0.36074037,302.09516 -0.20463037,302.23686 3.4181196,302.84647 C 5.6181096,303.21668 8.2130796,303.95152 9.1681196,304.47147 C 11.85826,305.93606 13.77179,305.61341 14.91812,303.47147 C 15.49479,302.39399 17.90097,300.64081 20.26187,299.59647 C 23.99509,297.94508 25.25526,297.8517 30.07437,298.81522 C 33.12199,299.42457 36.26839,300.45318 37.04312,301.09647 C 37.81786,301.73973 39.65,302.56704 41.13687,302.94022 C 42.62374,303.31341 44.37196,304.26294 45.01187,305.03397 C 45.65177,305.80503 46.79815,306.40897 47.54312,306.40897 C 48.2881,306.40896 49.61093,307.53397 50.51187,308.90897 C 51.41281,310.28396 52.97454,311.40897 53.98062,311.40897 C 54.98668,311.40896 57.00934,312.45593 58.48062,313.72147 C 60.80739,315.72288 61.23985,316.98657 61.69937,323.40897 C 62.15796,329.81845 62.66428,331.37779 65.57437,335.19022 C 67.41821,337.60575 68.93107,340.33234 68.94937,341.25272 C 69.0335,345.48414 75.08679,349.40897 81.48062,349.40897 C 84.29592,349.40896 84.99145,348.98248 85.51187,346.90897 C 86.30274,343.75786 90.45733,340.40897 93.57437,340.40897 C 94.8752,340.40896 96.89811,341.38896 98.07437,342.56522 C 100.04983,344.54071 100.15816,345.42142 99.63687,354.15897 C 99.14771,362.35791 99.346,364.05196 101.01187,366.78397 C 102.06895,368.51754 102.91607,370.92268 102.91812,372.12772 C 102.92017,373.33275 103.36812,374.56905 103.91812,374.90897 C 104.46811,375.24888 104.91812,376.25792 104.91812,377.12772 C 104.91811,377.99753 105.90573,380.66268 107.10562,383.0653 L 109.29312,387.4403 L 107.10562,390.409 C 105.89515,392.0463 104.47516,394.5261 103.94937,395.909 C 103.16172,397.9807 103.27789,398.4391 104.69937,398.534 C 110.92424,398.9495 114.91198,396.2001 117.79312,389.5028 C 118.97022,386.7665 120.84145,383.9038 121.94937,383.1278 C 123.0573,382.3518 125.41153,379.50602 127.16812,376.81522 C 131.12477,370.75432 131.52477,370.45913 136.19937,370.44022 C 139.70919,370.42601 140.1249,370.72549 141.82437,374.69022 C 142.83252,377.04209 144.66802,380.97961 145.88687,383.4403 C 148.61664,388.951 151.88502,398.3122 151.91812,400.7215 C 151.93164,401.7059 152.86568,404.3498 154.01187,406.5965 C 155.15805,408.8433 155.89404,411.4881 155.63687,412.4715 C 154.67247,416.1594 167.56174,431.8799 172.41812,432.9403 C 177.14402,433.9721 181.54246,433.8704 183.01187,432.6903 C 183.88019,431.9929 185.9353,431.409 187.57437,431.409 C 189.21343,431.409 191.413,430.7478 192.48062,429.9403 C 193.54825,429.1327 195.82979,428.4578 197.54312,428.4403 C 199.25646,428.4228 201.86958,427.4529 203.35562,426.284 L 206.07437,424.159 L 203.35562,421.3465 C 200.07072,417.9178 198.88844,410.0834 201.19937,407.0028 C 202.683,405.025 210.32505,402.5492 215.16812,402.4715 C 216.68063,402.4472 217.91812,402.0135 217.91812,401.5028 C 217.91813,399.1391 221.30577,397.409 225.98062,397.409 C 230.38854,397.409 230.94631,397.1624 231.51187,394.909 C 231.86445,393.5042 231.22465,388.8648 230.04312,384.3778 C 228.88215,379.96871 227.91812,375.06253 227.91812,373.47147 C 227.91813,370.65073 227.51977,369.57767 222.91812,360.56522 C 221.11757,357.03883 220.81476,355.24708 221.32437,351.06522 C 221.6698,348.2306 222.11927,342.75897 222.32437,338.90897 C 222.52948,335.05896 223.04213,329.34994 223.44937,326.19022 C 223.95418,322.27336 223.78247,319.46445 222.91812,317.37772 C 222.01095,315.18766 221.95846,313.99363 222.73062,313.22147 C 224.05788,311.89423 221.42964,307.40897 219.32437,307.40897 C 218.56262,307.40896 217.91812,306.76401 217.91812,305.97147 C 217.91813,303.60219 215.90146,303.08411 214.38687,305.06522 C 212.54539,307.47392 211.36223,305.86102 210.41812,299.56522 C 209.69539,294.74578 206.54737,290.46891 203.69937,290.44022 C 201.53073,290.41837 199.91812,287.46362 199.91812,283.50272 C 199.91813,281.81656 199.52437,280.40897 199.04312,280.40897 C 198.56188,280.40896 196.78148,280.15664 195.07437,279.81522 C 192.37803,279.27597 191.84621,279.53854 190.98062,281.81522 C 190.21531,283.82815 189.28507,284.40897 187.01187,284.40897 C 181.55162,284.40896 179.12103,282.82266 177.94937,278.47147 C 177.29422,276.03847 176.25379,274.40897 175.35562,274.40897 C 173.81874,274.40896 173.51138,274.95485 172.48062,279.65897 C 172.1492,281.17146 171.40686,282.40897 170.82437,282.40897 C 170.24187,282.40896 166.48286,280.83397 162.48062,278.90897 C 154.1208,274.88806 151.91191,274.61673 150.16812,277.40897 C 149.31046,278.78228 147.82271,279.40897 145.44937,279.40897 C 142.98111,279.40896 141.67544,279.998 140.88687,281.47147 C 139.89775,283.31964 139.19416,283.47715 134.10562,282.87772 C 127.77722,282.13223 123.94659,280.1726 123.19937,277.31522 C 122.92637,276.27125 122.27633,275.40897 121.76187,275.40897 C 121.24741,275.40896 120.36831,274.05897 119.79312,272.40897 C 118.90495,269.86117 118.20912,269.40897 115.29312,269.40897 C 113.16356,269.40896 111.65012,268.8393 111.29312,267.90897 C 110.93531,266.97653 110.10658,266.50574 109.35562,266.47147 z "
       id="rect7228" />
  </g>
</svg>
